<svg width="22" height="22" viewBox="0 0 22 22" fill="none" xmlns="http://www.w3.org/2000/svg">
<path d="M20.3543 13.2697L19.9543 18.2697C19.8043 19.7997 19.6843 20.9697 16.9743 20.9697H4.39434C1.68434 20.9697 1.56434 19.7997 1.41434 18.2697L1.01434 13.2697C0.934337 12.4397 1.19434 11.6697 1.66434 11.0797L1.68434 11.0597C2.23434 10.3897 3.06434 9.96973 3.99434 9.96973H17.3743C18.3043 9.96973 19.1243 10.3897 19.6643 11.0397C19.6743 11.0497 19.6843 11.0597 19.6843 11.0697C20.1743 11.6597 20.4443 12.4297 20.3543 13.2697Z" stroke="black" stroke-width="1.5" stroke-miterlimit="10"/>
<path d="M2.18359 10.4V5.25C2.18359 1.85 3.03359 1 6.43359 1H7.70359C8.97359 1 9.26359 1.38 9.74359 2.02L11.0136 3.72C11.3336 4.14 11.5236 4.4 12.3736 4.4H14.9236C18.3236 4.4 19.1736 5.25 19.1736 8.65V10.44M8.11359 15.97H13.2536" stroke="black" stroke-width="1.5" stroke-miterlimit="10" stroke-linecap="round" stroke-linejoin="round"/>
</svg>
