<svg width="22" height="22" viewBox="0 0 22 22" fill="none" xmlns="http://www.w3.org/2000/svg">
<path d="M1 8V5.5C1 3.01 3.01 1 5.5 1H8M14 1H16.5C18.99 1 21 3.01 21 5.5V8M21 15V16.5C21 18.99 18.99 21 16.5 21H15M8 21H5.5C3.01 21 1 18.99 1 16.5V14M9.5 6V8C9.5 9 9 9.5 8 9.5H6C5 9.5 4.5 9 4.5 8V6C4.5 5 5 4.5 6 4.5H8C9 4.5 9.5 5 9.5 6ZM17.5 6V8C17.5 9 17 9.5 16 9.5H14C13 9.5 12.5 9 12.5 8V6C12.5 5 13 4.5 14 4.5H16C17 4.5 17.5 5 17.5 6ZM9.5 14V16C9.5 17 9 17.5 8 17.5H6C5 17.5 4.5 17 4.5 16V14C4.5 13 5 12.5 6 12.5H8C9 12.5 9.5 13 9.5 14ZM17.5 14V16C17.5 17 17 17.5 16 17.5H14C13 17.5 12.5 17 12.5 16V14C12.5 13 13 12.5 14 12.5H16C17 12.5 17.5 13 17.5 14Z" stroke="black" stroke-width="1.5" stroke-linecap="round" stroke-linejoin="round"/>
</svg>
